<?xml version="1.0" encoding="utf-8"?>
<!-- Generator: Adobe Illustrator 16.0.0, SVG Export Plug-In . SVG Version: 6.00 Build 0)  -->
<!DOCTYPE svg PUBLIC "-//W3C//DTD SVG 1.1//EN" "http://www.w3.org/Graphics/SVG/1.1/DTD/svg11.dtd">
<svg version="1.1" id="Capa_1" xmlns="http://www.w3.org/2000/svg" xmlns:xlink="http://www.w3.org/1999/xlink" x="0px" y="0px"
	 width="725.15px" height="164.168px" viewBox="0 -4.833 725.15 164.168" enable-background="new 0 -4.833 725.15 164.168"
	 xml:space="preserve">
<g>
	<g>
		<g>
			<polygon fill="#37AB49" points="138.236,104.939 96.444,34.32 0,104.906 64.955,105.046 57.354,125.514 82.796,120.404 
				88.108,105.097 			"/>
			<polygon fill="#00A259" points="239.919,105.43 182.635,3.655 44.086,105.015 137.446,105.22 132.354,119.277 162.616,128.591 
				170.674,105.291 			"/>
			<path fill="#C5BF9E" d="M54.674,125.257c14.778,19.256,38.037,31.662,64.188,31.662c19.599,0,37.548-6.98,51.562-18.604
				c-6.365,0.054-12.581-0.743-18.513-2.728C121.382,125.407,92.913,117.102,54.674,125.257z"/>
			<path fill="#D4CBB3" d="M22.305,137.162c0,0,67.012-35.048,110.18-19.453c0,0,50.293,25.166,109.94-3.549
				c0,0-51.964,36.115-90.516,23.239C113.346,124.55,78.073,114.714,22.305,137.162z"/>
			<g>
				<path fill="#D4CBB3" d="M111.667,48.557l51.27-37.515c-12.648-8.519-27.883-13.459-44.261-13.459
					c-40.986,0-74.726,30.946-79.143,70.79l58.512-42.815L111.667,48.557z"/>
			</g>
		</g>
	</g>
	<g>
		<path fill="#00A259" d="M319.692,69.877v17.777c-10.181,5.402-20.848,8.103-31.999,8.103c-14.456,0-25.967-3.992-34.535-11.979
			c-8.569-7.986-12.854-17.826-12.854-29.522c0-11.695,4.518-21.625,13.552-29.784c9.035-8.16,20.838-12.241,35.41-12.241
			c11.618,0,21.449,2.39,29.493,7.17v18.127c-9.871-5.557-19.216-8.336-28.037-8.336c-8.665,0-15.747,2.323-21.246,6.966
			s-8.248,10.561-8.248,17.748c0,7.228,2.71,13.193,8.131,17.894c5.421,4.702,12.367,7.054,20.839,7.054
			c4.196,0,8.237-0.555,12.123-1.662C306.208,76.084,311.999,73.648,319.692,69.877z"/>
		<path fill="#00A259" d="M408.044,79.787v14.922h-60.036V13.281h59.219v14.921h-38.936v17.079h37.128v14.921h-37.128v19.585
			H408.044L408.044,79.787z"/>
		<path fill="#00A259" d="M513.183,18.935v17.777c-10.375-5.013-20.519-7.52-30.426-7.52c-9.56,0-16.925,2.411-22.092,7.229
			c-5.169,4.818-7.753,10.958-7.753,18.418c0,7.15,2.584,12.94,7.753,17.37c5.167,4.431,11.969,6.646,20.4,6.646
			c4.468,0,8.956-0.971,13.465-2.915v-9.5h-11.773V51.518h32.115v33.28c-3.227,3.228-8.131,5.858-14.717,7.898
			c-6.587,2.04-13.105,3.061-19.556,3.061c-14.186,0-25.831-3.914-34.943-11.744s-13.669-17.787-13.669-29.873
			c0-12.357,4.557-22.432,13.669-30.223s20.914-11.687,35.409-11.687C493.034,12.232,503.74,14.466,513.183,18.935z"/>
		<path fill="#00A259" d="M544.471,13.281h36.371c7.888,0,14.3,2.281,19.234,6.845c4.936,4.563,7.402,10.087,7.402,16.572
			c0,8.971-4.663,15.611-13.989,19.92c4.088,1.859,7.974,6.868,11.656,15.023s7.237,15.845,10.668,23.067h-22.259
			c-1.329-2.682-3.645-7.791-6.945-15.33c-3.302-7.539-6.128-12.376-8.479-14.514c-2.353-2.137-4.867-3.206-7.55-3.206h-5.827v33.05
			H544.47L544.471,13.281L544.471,13.281z M564.755,28.203v18.536h10.725c3.419,0,6.13-0.807,8.132-2.419
			c2-1.612,3.001-3.915,3.001-6.907c0-6.14-3.867-9.21-11.6-9.21H564.755z"/>
		<path fill="#00A259" d="M678.578,12.232c13.872,0,25.103,4.188,33.69,12.562c8.587,8.374,12.882,18.118,12.882,29.231
			c0,11.269-4.353,21.042-13.057,29.318c-8.705,8.275-19.876,12.414-33.517,12.414c-13.795,0-25.023-4.117-33.688-12.355
			c-8.666-8.238-12.998-18.03-12.998-29.376c0-11.152,4.303-20.905,12.91-29.261C653.407,16.41,664.667,12.232,678.578,12.232z
			 M678.578,78.855c7.693,0,13.893-2.282,18.595-6.85c4.7-4.564,7.053-10.559,7.053-17.98c0-7.461-2.353-13.465-7.053-18.011
			c-4.702-4.547-10.9-6.82-18.595-6.82c-7.731,0-13.96,2.272-18.681,6.82c-4.721,4.547-7.082,10.55-7.082,18.011
			c0,7.422,2.361,13.416,7.082,17.98C664.618,76.572,670.846,78.855,678.578,78.855z"/>
	</g>
	<g>
		<path fill="#00A259" d="M487.295,113.751c1.978,0,4.066,0.494,6.268,1.482v4.545c-2.009-1.34-4.003-2.01-5.979-2.01
			c-2.011,0-3.598,0.711-4.762,2.13c-1.165,1.42-1.746,3.086-1.746,5c0,1.883,0.573,3.549,1.723,5
			c1.147,1.452,3.015,2.177,5.599,2.177c1.658,0,3.541-0.479,5.646-1.436v4.211c-2.104,0.829-4.194,1.244-6.269,1.244
			c-1.979,0-3.708-0.344-5.191-1.028c-1.482-0.685-2.632-1.579-3.444-2.68c-0.813-1.101-1.42-2.257-1.818-3.47
			c-0.398-1.211-0.598-2.439-0.598-3.685c0-3.509,0.979-6.3,2.941-8.373S484.168,113.751,487.295,113.751z"/>
		<path fill="#00A259" d="M510.597,113.751c3.285,0,6.005,1.037,8.158,3.109c2.152,2.073,3.229,4.77,3.229,8.086
			c0,3.604-1.188,6.363-3.563,8.277c-2.378,1.914-5.032,2.871-7.968,2.871c-3.541,0-6.332-1.124-8.373-3.373
			c-2.042-2.249-3.063-4.793-3.063-7.633c0-3.254,1.06-5.957,3.182-8.109S507.119,113.751,510.597,113.751z M510.31,117.578
			c-2.01,0-3.669,0.67-4.977,2.01c-1.309,1.341-1.962,3.127-1.962,5.359c0,2.233,0.678,4.012,2.033,5.335
			c1.355,1.324,3.069,1.985,5.145,1.985c2.104,0,3.812-0.693,5.119-2.081c1.307-1.388,1.962-3.149,1.962-5.287
			c0-2.394-0.71-4.211-2.129-5.455C514.081,118.201,512.351,117.578,510.31,117.578z"/>
		<path fill="#00A259" d="M538.444,113.751c3.285,0,6.005,1.037,8.158,3.109c2.153,2.073,3.229,4.77,3.229,8.086
			c0,3.604-1.188,6.363-3.563,8.277c-2.377,1.914-5.032,2.871-7.967,2.871c-3.541,0-6.332-1.124-8.373-3.373
			c-2.042-2.249-3.063-4.793-3.063-7.633c0-3.254,1.061-5.957,3.183-8.109C532.167,114.828,534.966,113.751,538.444,113.751z
			 M538.156,117.578c-2.01,0-3.669,0.67-4.977,2.01c-1.309,1.341-1.961,3.127-1.961,5.359c0,2.233,0.677,4.012,2.033,5.335
			c1.354,1.324,3.068,1.985,5.144,1.985c2.105,0,3.813-0.693,5.119-2.081s1.962-3.149,1.962-5.287c0-2.394-0.71-4.211-2.129-5.455
			C541.928,118.201,540.198,117.578,538.156,117.578z"/>
		<path fill="#00A259" d="M575.668,124.947c0,3.158-0.997,5.807-2.99,7.942c-1.994,2.138-4.554,3.206-7.681,3.206
			c-1.436,0-2.982-0.319-4.642-0.957v11.531h-4.258v-32.488h7.99c3.571,0,6.396,0.933,8.469,2.799S575.668,121.501,575.668,124.947z
			 M560.357,117.914v13.444c1.18,0.67,2.584,1.005,4.211,1.005c1.979,0,3.596-0.686,4.856-2.058c1.26-1.371,1.891-3.157,1.891-5.358
			c0-2.265-0.622-4.003-1.866-5.216c-1.244-1.212-3.095-1.817-5.551-1.817H560.357z"/>
		<path fill="#00A259" d="M590.596,113.751c2.743,0,4.992,0.988,6.746,2.967c1.754,1.978,2.632,4.688,2.632,8.134v0.431h-15.119
			c0.159,2.043,0.854,3.678,2.081,4.904c1.228,1.229,2.847,1.842,4.856,1.842c2.807,0,5.405-0.877,7.799-2.631v4.162
			c-2.553,1.691-5.344,2.536-8.373,2.536c-2.967,0-5.486-1.028-7.561-3.086c-2.073-2.058-3.109-4.81-3.109-8.255
			c0-3.188,0.916-5.82,2.751-7.895C585.133,114.789,587.565,113.751,590.596,113.751z M584.949,122.746h10.814
			c-0.096-1.658-0.591-2.957-1.483-3.898c-0.894-0.94-2.138-1.412-3.731-1.412c-1.5,0-2.775,0.511-3.828,1.531
			C585.667,119.987,585.077,121.248,584.949,122.746z"/>
		<path fill="#00A259" d="M616.673,113.751c1.723,0,3.396,0.813,5.022,2.439l-2.248,3.73c-1.468-1.402-2.84-2.104-4.114-2.104
			c-1.182,0-2.32,0.599-3.422,1.795c-1.101,1.196-1.65,2.735-1.65,4.617v11.437h-4.258v-21.483h4.258v4.928
			C612.43,115.537,614.568,113.751,616.673,113.751z"/>
		<path fill="#00A259" d="M632.079,113.751c2.425,0,4.33,0.629,5.719,1.89c1.388,1.261,2.082,2.942,2.082,5.048v10.813
			c0,0.67,0.271,1.006,0.813,1.006c0.51,0,1.26-0.383,2.248-1.148v3.063c-1.658,1.117-3.142,1.676-4.449,1.676
			c-1.596,0-2.567-0.733-2.919-2.201c-1.851,1.468-3.78,2.201-5.79,2.201c-1.499,0-2.751-0.52-3.756-1.555
			c-1.005-1.037-1.507-2.273-1.507-3.709c0-1.883,0.741-3.332,2.225-4.354c1.483-1.021,4.441-2.28,8.876-3.78v-1.195
			c0-2.488-1.292-3.732-3.876-3.732c-2.552,0-4.815,1.182-6.794,3.541v-4.641C626.609,114.724,628.986,113.751,632.079,113.751z
			 M628.826,130.066c0,0.861,0.287,1.579,0.86,2.153c0.574,0.573,1.308,0.86,2.201,0.86c1.244,0,2.488-0.59,3.731-1.771v-6.269
			c-2.457,0.799-4.202,1.58-5.238,2.346C629.344,128.153,628.826,129.044,628.826,130.066z"/>
		<path fill="#00A259" d="M644.758,117.578l7.895-7.847h0.097v4.45h6.795v3.826h-6.795v10.002c0,1.308,0.198,2.337,0.599,3.086
			c0.397,0.75,1.203,1.124,2.416,1.124c1.658,0,3.285-0.511,4.881-1.531v3.972c-1.627,0.957-3.462,1.437-5.503,1.437
			c-2.201,0-3.859-0.63-4.977-1.89c-1.116-1.261-1.675-3.326-1.675-6.197v-10h-3.731L644.758,117.578L644.758,117.578z"/>
		<path fill="#00A259" d="M666.241,105.903c0.479-0.51,1.068-0.766,1.771-0.766c0.701,0,1.299,0.247,1.794,0.741
			c0.494,0.496,0.741,1.076,0.741,1.746s-0.247,1.262-0.741,1.771c-0.495,0.511-1.093,0.766-1.794,0.766
			c-0.702,0-1.292-0.263-1.771-0.789c-0.479-0.525-0.718-1.107-0.718-1.746S665.763,106.414,666.241,105.903z M665.906,114.181
			h4.258v21.482h-4.258V114.181z"/>
		<path fill="#00A259" d="M674.71,114.181h4.642l5.789,13.206l5.599-13.206h4.594l-9.475,21.914h-1.436L674.71,114.181z"/>
		<path fill="#00A259" d="M709.256,113.751c3.284,0,6.005,1.037,8.157,3.109c2.153,2.073,3.229,4.77,3.229,8.086
			c0,3.604-1.188,6.363-3.564,8.277c-2.377,1.914-5.031,2.871-7.967,2.871c-3.541,0-6.332-1.124-8.373-3.373
			c-2.042-2.249-3.063-4.793-3.063-7.633c0-3.254,1.06-5.957,3.182-8.109S705.779,113.751,709.256,113.751z M708.969,117.578
			c-2.011,0-3.669,0.67-4.978,2.01c-1.308,1.341-1.961,3.127-1.961,5.359c0,2.233,0.678,4.012,2.033,5.335
			c1.355,1.324,3.069,1.985,5.145,1.985c2.104,0,3.812-0.693,5.118-2.081c1.308-1.388,1.962-3.149,1.962-5.287
			c0-2.394-0.71-4.211-2.129-5.455C712.74,118.201,711.01,117.578,708.969,117.578z"/>
	</g>
	<g>
		<path fill="#00A259" d="M251.359,106.49h4.325v30.102h-4.325V106.49z"/>
		<path fill="#00A259" d="M265.835,106.49h4.061l10.02,12.358l9.975-12.358h4.018v30.102h-4.326v-23.437l-9.27,11.651h-0.794
			l-9.356-11.651v23.437h-4.325L265.835,106.49L265.835,106.49z"/>
		<path fill="#00A259" d="M304.058,106.49h9.18c3.061,0,5.458,0.758,7.195,2.272c1.736,1.517,2.604,3.598,2.604,6.245
			c0,2.885-0.913,5.024-2.737,6.423c-1.825,1.397-4.414,2.097-7.768,2.097h-4.149v13.064h-4.325V106.49z M308.383,110.287v9.444
			h3.972c2.354,0,3.979-0.403,4.877-1.214c0.897-0.809,1.347-2.01,1.347-3.598c0-1.5-0.464-2.647-1.391-3.442
			c-0.927-0.794-2.538-1.19-4.833-1.19H308.383z"/>
		<path fill="#00A259" d="M330.716,106.49h4.326v17.436c0,3.266,0.706,5.619,2.118,7.062s3.59,2.163,6.532,2.163
			c2.913,0,5.068-0.734,6.467-2.207c1.396-1.472,2.097-3.824,2.097-7.063V106.49h4.326v17.391c0,4.179-1.082,7.408-3.244,9.688
			c-2.163,2.28-5.378,3.421-9.645,3.421c-8.65,0-12.977-4.354-12.977-13.063L330.716,106.49L330.716,106.49z"/>
		<path fill="#00A259" d="M366.335,106.49h4.369v26.174h13.55v3.928h-17.919V106.49L366.335,106.49z"/>
		<path fill="#00A259" d="M399.747,106.091c2.472,0,4.78,0.707,6.93,2.119v4.898c-2.148-2.089-4.502-3.134-7.063-3.134
			c-1.354,0-2.427,0.315-3.222,0.948c-0.795,0.634-1.19,1.479-1.19,2.539c0,1,0.301,1.912,0.903,2.735
			c0.604,0.824,1.949,1.841,4.039,3.046c3.118,1.795,5.187,3.361,6.201,4.7c1.015,1.341,1.522,3.067,1.522,5.187
			c0,2.236-0.811,4.104-2.429,5.605c-1.618,1.5-3.723,2.251-6.312,2.251c-2.913,0-5.62-0.927-8.121-2.78v-5.474
			c2.236,2.942,4.942,4.414,8.121,4.414c1.265,0,2.316-0.376,3.156-1.126c0.839-0.75,1.258-1.699,1.258-2.848
			c0-1.117-0.397-2.141-1.191-3.066c-0.795-0.927-2.575-2.199-5.341-3.818c-2.236-1.293-3.818-2.604-4.745-3.928
			s-1.391-2.913-1.391-4.768c0-2.147,0.839-3.936,2.517-5.362C395.068,106.806,397.187,106.091,399.747,106.091z"/>
		<path fill="#00A259" d="M431.437,106.091c4.737,0,8.629,1.479,11.674,4.437c3.046,2.957,4.568,6.614,4.568,10.97
			c0,4.236-1.494,7.877-4.479,10.924c-2.986,3.045-6.98,4.567-11.982,4.567c-4.65,0-8.46-1.501-11.432-4.502
			c-2.974-3.002-4.458-6.621-4.458-10.858c0-2,0.353-3.92,1.06-5.76c0.706-1.839,1.721-3.486,3.045-4.943
			c1.324-1.455,3.022-2.625,5.098-3.508C426.604,106.535,428.906,106.091,431.437,106.091z M431.569,110.153
			c-3.619,0-6.488,1.089-8.605,3.267c-2.119,2.179-3.178,4.914-3.178,8.209c0,3.268,1.132,5.968,3.397,8.101
			c2.266,2.134,4.973,3.2,8.121,3.2c3.384,0,6.216-0.993,8.496-2.979c2.279-1.986,3.421-4.818,3.421-8.496
			c0-2.854-1.045-5.451-3.134-7.791C437.997,111.323,435.158,110.153,431.569,110.153z"/>
	</g>
</g>
</svg>
